<?xml version="1.0" standalone="no"?>
<!DOCTYPE svg PUBLIC "-//W3C//DTD SVG 20010904//EN"
 "http://www.w3.org/TR/2001/REC-SVG-20010904/DTD/svg10.dtd">
<svg version="1.0" xmlns="http://www.w3.org/2000/svg"
 width="512.000000pt" height="512.000000pt" viewBox="0 0 512.000000 512.000000"
 preserveAspectRatio="xMidYMid meet">

<g transform="translate(0.000000,512.000000) scale(0.100000,-0.100000)"
fill="#000000" stroke="none">
<path d="M353 4733 l-31 -208 66 -68 c137 -140 362 -301 592 -421 69 -36 117
-66 108 -66 -31 0 -232 41 -343 70 -136 36 -289 89 -390 135 -43 19 -79 35
-81 35 -2 0 -4 -76 -4 -170 0 -165 1 -170 22 -184 62 -40 401 -123 598 -147
128 -15 136 -19 60 -36 -118 -25 -293 -44 -461 -50 l-167 -6 33 -96 c18 -53
43 -122 55 -155 l22 -59 75 7 c104 8 293 48 458 95 76 22 140 39 142 37 4 -3
-125 -93 -212 -147 -38 -24 -137 -77 -218 -120 l-149 -76 144 -148 145 -149
79 46 c43 25 81 44 83 42 2 -2 -9 -51 -24 -110 l-29 -106 34 -26 c61 -49 234
-172 242 -172 4 0 34 24 65 52 l58 52 5 -99 5 -99 40 -23 c155 -88 320 -94
505 -19 l61 25 -7 -97 c-3 -53 -9 -100 -13 -104 -8 -9 -235 -73 -537 -152
-384 -100 -532 -157 -619 -237 -47 -44 -75 -114 -52 -135 7 -6 77 -24 157 -39
80 -15 151 -31 159 -35 9 -5 -44 -38 -153 -95 -129 -67 -166 -91 -162 -103 3
-10 10 -37 16 -61 6 -24 22 -68 35 -97 l23 -53 199 79 c109 43 200 76 201 75
2 -2 -57 -84 -132 -181 l-136 -178 97 -98 c54 -54 102 -98 108 -98 5 0 96 101
200 224 105 123 191 223 192 222 1 -1 -36 -134 -82 -296 -46 -162 -85 -303
-87 -314 -3 -20 37 -44 182 -110 l76 -34 209 345 c115 189 211 340 213 335 2
-6 -27 -179 -63 -387 -37 -207 -64 -379 -61 -382 22 -22 256 -49 337 -39 l55
7 53 222 c113 470 125 517 130 512 3 -3 48 -160 102 -348 92 -327 97 -342 119
-339 13 1 81 28 151 58 l128 56 -6 32 c-3 17 -29 150 -58 294 -30 149 -47 258
-40 250 6 -7 85 -107 175 -221 106 -136 167 -207 176 -203 15 6 176 114 212
143 l23 19 -67 134 c-36 74 -77 159 -90 189 l-24 53 23 -14 c12 -8 84 -50 161
-93 l139 -79 23 28 c30 34 31 85 3 144 -36 73 -180 214 -459 446 -146 121
-304 258 -352 304 l-87 84 41 62 c23 33 59 89 79 124 l36 62 43 -55 c88 -114
219 -211 340 -251 67 -23 261 -26 328 -6 l44 13 -4 105 c-1 57 -1 104 2 104 3
-1 39 -32 80 -70 l75 -69 30 19 c16 10 67 46 112 80 l82 61 -34 94 c-19 52
-32 95 -30 95 3 0 31 -13 63 -28 121 -60 114 -60 188 -11 36 23 109 84 162
136 l97 93 -26 22 c-15 13 -117 100 -227 193 -110 94 -199 171 -198 172 1 1
71 -29 156 -66 153 -68 366 -151 385 -151 13 0 159 269 151 278 -4 3 -62 21
-129 39 -126 35 -318 107 -397 150 -25 13 -36 21 -25 18 42 -13 411 -17 505
-6 143 18 129 7 182 144 26 67 50 136 54 153 l6 32 -78 -19 c-175 -42 -453
-67 -586 -54 l-72 7 119 42 c218 76 458 206 589 319 l38 33 -27 161 -28 161
-86 -70 c-230 -186 -520 -319 -834 -383 -67 -13 -241 -40 -387 -60 -463 -62
-594 -108 -733 -255 l-62 -65 -77 3 c-68 3 -78 6 -78 22 0 11 -11 49 -24 84
-84 233 -264 375 -681 538 -77 31 -212 83 -300 118 -379 148 -652 300 -873
484 -89 74 -322 311 -322 327 0 5 -3 9 -8 9 -4 0 -22 -93 -39 -207z m2574
-1895 c-2 -7 -24 -106 -48 -220 -24 -114 -47 -204 -51 -200 -9 9 -227 416
-225 419 1 1 29 -8 62 -19 74 -25 154 -21 211 9 46 25 58 28 51 11z"/>
</g>
</svg>
